<svg xmlns="http://www.w3.org/2000/svg" width="512" height="512" viewBox="0 0 512 512"><path fill="#aaa" d="M512 97.208c-18.838 8.354-39.082 14.003-60.332 16.542 21.69-13 38.346-33.587 46.188-58.115-20.295 12.04-42.77 20.78-66.697 25.49-19.163-20.413-46.468-33.17-76.68-33.17-58.017 0-105.043 47.03-105.043 105.038 0 8.236.93 16.25 2.72 23.94-87.3-4.38-164.7-46.2-216.51-109.752-9.042 15.515-14.222 33.56-14.222 52.81 0 36.444 18.545 68.594 46.73 87.434-17.22-.545-33.416-5.27-47.58-13.14-.006.44-.007.876-.007 1.32 0 50.896 36.208 93.35 84.262 103-8.813 2.4-18.096 3.688-27.676 3.688-6.768 0-13.35-.66-19.762-1.89 13.367 41.73 52.16 72.104 98.125 72.948-35.95 28.18-81.243 44.973-130.457 44.973-8.48 0-16.84-.496-25.058-1.477 46.486 29.812 101.702 47.195 161.02 47.195 193.21 0 298.868-160.06 298.868-298.87 0-4.553-.104-9.084-.305-13.588 20.522-14.808 38.33-33.308 52.415-54.374z"/></svg>