
<svg width="60px" height="56px" viewBox="0 0 60 56" version="1.1" xmlns="http://www.w3.org/2000/svg" xmlns:xlink="http://www.w3.org/1999/xlink">
    <!-- Generator: Sketch 3.8.3 (29802) - http://www.bohemiancoding.com/sketch -->
    <desc>Created with Sketch.</desc>
    <defs></defs>
    <g id="Group" stroke="none" stroke-width="1" fill="none" fill-rule="evenodd">
        <path d="M0.926,0.68 L15.428,0.68 L47.996,40.67 L47.996,9.957 C47.996,6.669 47.621,4.619 46.873,3.805 C45.929,2.699 44.399,2.145 42.283,2.145 L40.428,2.145 L40.428,0.68 L58.983,0.68 L58.983,2.145 L57.128,2.145 C54.849,2.145 53.238,2.829 52.294,4.196 C51.74,5.043 51.464,6.963 51.464,9.958 L51.464,54.88 L50.048,54.88 L14.892,11.96 L14.892,44.773 C14.892,48.029 15.25,50.063 15.966,50.877 C16.943,51.984 18.472,52.537 20.556,52.537 L22.46,52.537 L22.46,54 L3.904,54 L3.904,52.535 L5.711,52.535 C8.022,52.535 9.633,51.851 10.545,50.484 C11.131,49.671 11.424,47.766 11.424,44.771 L11.424,7.71 C9.894,5.887 8.73,4.691 7.933,4.121 C7.135,3.552 5.955,3.006 4.393,2.485 C3.644,2.257 2.489,2.143 0.926,2.143 L0.926,0.68 L0.926,0.68 Z" id="Shape" stroke="#FFFFFF" fill="#000000"></path>
    </g>
</svg>