<?xml version="1.0" encoding="utf-8"?>
<!-- Generator: Adobe Illustrator 16.0.0, SVG Export Plug-In . SVG Version: 6.00 Build 0)  -->
<!DOCTYPE svg PUBLIC "-//W3C//DTD SVG 1.1//EN" "http://www.w3.org/Graphics/SVG/1.1/DTD/svg11.dtd">
<svg version="1.1" xmlns="http://www.w3.org/2000/svg" xmlns:xlink="http://www.w3.org/1999/xlink" x="0px" y="0px" width="500px"
	 height="300px" viewBox="0 0 500 300" enable-background="new 0 0 500 300" xml:space="preserve">
<g id="圖層_1">
</g>
<g id="圖層_2">
	<g>
		<path fill="none" stroke="#FFFFFF" stroke-miterlimit="10" d="M89.926,118.68h14.502l32.568,39.99v-30.713
			c0-3.288-0.375-5.338-1.123-6.152c-0.944-1.106-2.474-1.66-4.59-1.66h-1.855v-1.465h18.555v1.465h-1.855
			c-2.279,0-3.89,0.684-4.834,2.051c-0.554,0.847-0.83,2.767-0.83,5.762v44.922h-1.416l-35.156-42.92v32.813
			c0,3.256,0.358,5.29,1.074,6.104c0.977,1.107,2.506,1.66,4.59,1.66h1.904V172H92.904v-1.465h1.807
			c2.311,0,3.922-0.684,4.834-2.051c0.586-0.813,0.879-2.718,0.879-5.713v-37.061c-1.53-1.823-2.694-3.019-3.491-3.589
			c-0.798-0.569-1.978-1.115-3.54-1.636c-0.749-0.228-1.904-0.342-3.467-0.342V118.68z"/>
		<path fill="none" stroke="#FFFFFF" stroke-miterlimit="10" d="M185.971,154.178h-20.605l-3.613,8.398
			c-0.912,2.051-1.367,3.598-1.367,4.639c0,0.814,0.391,1.53,1.172,2.148c0.781,0.619,2.458,1.01,5.029,1.172V172h-16.797v-1.465
			c2.213-0.391,3.646-0.895,4.297-1.514c1.334-1.27,2.815-3.824,4.443-7.666l18.75-43.896h1.416l18.555,44.385
			c1.465,3.549,2.808,5.852,4.028,6.909s2.921,1.652,5.103,1.782V172h-21.045v-1.465c2.148-0.098,3.589-0.447,4.321-1.05
			s1.099-1.343,1.099-2.222c0-1.139-0.521-2.945-1.563-5.42L185.971,154.178z M184.896,151.248l-9.033-21.533l-9.277,21.533H184.896
			z"/>
		<path fill="none" stroke="#FFFFFF" stroke-miterlimit="10" d="M253.891,118.68l0.586,12.5h-1.514
			c-0.261-2.181-0.651-3.743-1.172-4.688c-0.814-1.53-1.896-2.653-3.247-3.369c-1.352-0.716-3.117-1.074-5.298-1.074h-7.52v40.723
			c0,3.256,0.357,5.29,1.074,6.104c0.977,1.107,2.506,1.66,4.59,1.66h1.855V172h-22.607v-1.465h1.904
			c2.246,0,3.841-0.684,4.785-2.051c0.553-0.813,0.83-2.718,0.83-5.713v-40.723h-6.396c-2.475,0-4.232,0.179-5.273,0.537
			c-1.367,0.488-2.539,1.44-3.516,2.856s-1.547,3.329-1.709,5.737h-1.514l0.635-12.5H253.891z"/>
		<path fill="none" stroke="#FFFFFF" stroke-miterlimit="10" d="M294.857,120.145v-1.465h18.896v1.465h-2.002
			c-2.116,0-3.728,0.879-4.834,2.637c-0.554,0.814-0.83,2.702-0.83,5.664v21.631c0,5.339-0.529,9.48-1.587,12.427
			c-1.059,2.946-3.142,5.478-6.25,7.593c-3.109,2.115-7.333,3.174-12.671,3.174c-5.827,0-10.246-1.01-13.257-3.027
			c-3.012-2.018-5.151-4.736-6.421-8.154c-0.847-2.344-1.27-6.722-1.27-13.135v-20.801c0-3.288-0.448-5.444-1.343-6.47
			c-0.896-1.025-2.353-1.538-4.37-1.538h-2.002v-1.465h23.047v1.465h-2.051c-2.214,0-3.793,0.7-4.736,2.1
			c-0.651,0.944-0.977,2.914-0.977,5.908v23.193c0,2.084,0.187,4.46,0.562,7.129c0.374,2.67,1.065,4.753,2.075,6.25
			c1.009,1.498,2.449,2.734,4.321,3.711c1.871,0.977,4.158,1.465,6.86,1.465c3.482,0,6.6-0.765,9.351-2.295
			c2.75-1.529,4.63-3.482,5.64-5.859c1.009-2.376,1.514-6.38,1.514-12.012v-21.582c0-3.353-0.358-5.436-1.074-6.25
			c-1.01-1.172-2.523-1.758-4.541-1.758H294.857z"/>
		<path fill="none" stroke="#FFFFFF" stroke-miterlimit="10" d="M369.027,172h-14.209l-18.066-24.902
			c-1.335,0.033-2.426,0.049-3.271,0.049c-0.326,0-0.684-0.008-1.074-0.024c-0.391-0.016-0.798-0.024-1.221-0.024v15.479
			c0,3.354,0.357,5.437,1.074,6.25c1.009,1.14,2.506,1.709,4.492,1.709h2.1V172H316v-1.465h2.002c2.246,0,3.857-0.732,4.834-2.197
			c0.553-0.813,0.83-2.734,0.83-5.762v-34.424c0-3.353-0.358-5.436-1.074-6.25c-1.042-1.172-2.572-1.758-4.59-1.758H316v-1.465
			h19.434c5.664,0,9.839,0.415,12.524,1.245s4.964,2.352,6.836,4.565c1.871,2.214,2.808,4.851,2.808,7.91
			c0,3.288-1.066,6.136-3.198,8.545c-2.133,2.409-5.444,4.118-9.937,5.127l10.986,15.283c2.539,3.516,4.712,5.852,6.519,7.007
			s4.158,1.88,7.056,2.173V172z M331.186,144.607c0.488,0,0.919,0.008,1.294,0.024c0.374,0.017,0.675,0.024,0.903,0.024
			c5.078,0,8.911-1.106,11.499-3.32c2.588-2.213,3.882-5.013,3.882-8.398c0-3.32-1.042-6.022-3.125-8.105
			c-2.084-2.083-4.851-3.125-8.301-3.125c-1.498,0-3.549,0.244-6.152,0.732V144.607z"/>
		<path fill="none" stroke="#FFFFFF" stroke-miterlimit="10" d="M385.189,121.609v21.045h11.67c3.06,0,5.094-0.456,6.104-1.367
			c1.367-1.204,2.132-3.32,2.295-6.348h1.465v18.555h-1.465c-0.358-2.604-0.732-4.264-1.123-4.98
			c-0.456-0.944-1.221-1.676-2.295-2.197c-1.074-0.521-2.734-0.781-4.98-0.781h-11.67v17.578c0,2.377,0.098,3.816,0.293,4.321
			s0.562,0.903,1.099,1.196s1.538,0.439,3.003,0.439h9.033c2.994,0,5.176-0.203,6.543-0.61s2.686-1.229,3.955-2.466
			c1.627-1.627,3.287-4.085,4.98-7.373h1.563L411.068,172h-41.064v-1.465h1.855c1.27,0,2.474-0.293,3.613-0.879
			c0.813-0.423,1.375-1.058,1.685-1.904c0.309-0.846,0.464-2.555,0.464-5.127v-34.668c0-3.353-0.342-5.436-1.025-6.25
			c-0.944-1.042-2.523-1.563-4.736-1.563h-1.855v-1.465h41.064l0.586,11.719h-1.514c-0.554-2.832-1.164-4.769-1.831-5.811
			c-0.668-1.042-1.652-1.839-2.954-2.393c-1.074-0.391-2.93-0.586-5.566-0.586H385.189z"/>
	</g>
</g>
</svg>
